<mxfile host="app.diagrams.net" modified="2023-05-26T07:53:08.420Z" agent="Mozilla/5.0 (Windows NT 10.0; Win64; x64) AppleWebKit/537.36 (KHTML, like Gecko) Chrome/112.0.0.0 Whale/3.20.182.14 Safari/537.36" etag="eiEo1Nqy3iZVBh25au48" version="21.1.2" type="github">
  <diagram name="페이지-1" id="FAW7o20MJ5BuNLGTKJsm">
    <mxGraphModel dx="2764" dy="2096" grid="1" gridSize="10" guides="1" tooltips="1" connect="1" arrows="1" fold="1" page="1" pageScale="1" pageWidth="690" pageHeight="980" math="0" shadow="0">
      <root>
        <mxCell id="0" />
        <mxCell id="1" parent="0" />
        <mxCell id="TQTW1y5eRDtWmOhOV3Ei-1" value="&lt;b&gt;&lt;font style=&quot;font-size: 14px;&quot;&gt;선도관리 시스템 냉장고&lt;br&gt;&lt;/font&gt;&lt;/b&gt;&lt;br&gt;간단입력[0]&lt;br&gt;상세입력[1]&lt;br&gt;상품목록확인[2]&lt;br&gt;상품삭제[3]&lt;br&gt;유통기한검사[4]" style="whiteSpace=wrap;html=1;aspect=fixed;labelBackgroundColor=none;" vertex="1" parent="1">
          <mxGeometry x="-525" width="190" height="190" as="geometry" />
        </mxCell>
        <mxCell id="TQTW1y5eRDtWmOhOV3Ei-3" value="" style="endArrow=classic;html=1;rounded=0;labelBackgroundColor=none;fontColor=default;" edge="1" parent="1">
          <mxGeometry width="50" height="50" relative="1" as="geometry">
            <mxPoint x="-452.5" y="-840" as="sourcePoint" />
            <mxPoint x="-402.5" y="-840" as="targetPoint" />
          </mxGeometry>
        </mxCell>
        <mxCell id="TQTW1y5eRDtWmOhOV3Ei-4" value="category(CATE)" style="swimlane;fontStyle=0;childLayout=stackLayout;horizontal=1;startSize=30;horizontalStack=0;resizeParent=1;resizeParentMax=0;resizeLast=0;collapsible=1;marginBottom=0;whiteSpace=wrap;html=1;" vertex="1" parent="1">
          <mxGeometry x="-402.5" y="-860" width="180" height="60" as="geometry" />
        </mxCell>
        <mxCell id="TQTW1y5eRDtWmOhOV3Ei-5" value="대분류 카테고리명" style="text;strokeColor=none;fillColor=none;align=left;verticalAlign=middle;spacingLeft=4;spacingRight=4;overflow=hidden;points=[[0,0.5],[1,0.5]];portConstraint=eastwest;rotatable=0;whiteSpace=wrap;html=1;" vertex="1" parent="TQTW1y5eRDtWmOhOV3Ei-4">
          <mxGeometry y="30" width="180" height="30" as="geometry" />
        </mxCell>
        <mxCell id="TQTW1y5eRDtWmOhOV3Ei-9" value="" style="endArrow=classic;html=1;rounded=0;labelBackgroundColor=none;fontColor=default;" edge="1" parent="1">
          <mxGeometry width="50" height="50" relative="1" as="geometry">
            <mxPoint x="-222.5" y="-840" as="sourcePoint" />
            <mxPoint x="-172.5" y="-840" as="targetPoint" />
          </mxGeometry>
        </mxCell>
        <mxCell id="TQTW1y5eRDtWmOhOV3Ei-10" value="small_category(S_CATE)" style="swimlane;fontStyle=0;childLayout=stackLayout;horizontal=1;startSize=30;horizontalStack=0;resizeParent=1;resizeParentMax=0;resizeLast=0;collapsible=1;marginBottom=0;whiteSpace=wrap;html=1;" vertex="1" parent="1">
          <mxGeometry x="-172.5" y="-860" width="160" height="60" as="geometry" />
        </mxCell>
        <mxCell id="TQTW1y5eRDtWmOhOV3Ei-11" value="소분류 카테고리명" style="text;strokeColor=none;fillColor=none;align=left;verticalAlign=middle;spacingLeft=4;spacingRight=4;overflow=hidden;points=[[0,0.5],[1,0.5]];portConstraint=eastwest;rotatable=0;whiteSpace=wrap;html=1;" vertex="1" parent="TQTW1y5eRDtWmOhOV3Ei-10">
          <mxGeometry y="30" width="160" height="30" as="geometry" />
        </mxCell>
        <mxCell id="TQTW1y5eRDtWmOhOV3Ei-6" value="S_CATE* arr_small_category;&lt;br&gt;//소분류 카테고리 구조체 배열" style="text;strokeColor=default;fillColor=none;align=left;verticalAlign=middle;spacingLeft=4;spacingRight=4;overflow=hidden;points=[[0,0.5],[1,0.5]];portConstraint=eastwest;rotatable=0;whiteSpace=wrap;html=1;" vertex="1" parent="1">
          <mxGeometry x="-402.5" y="-800" width="180" height="40" as="geometry" />
        </mxCell>
        <mxCell id="TQTW1y5eRDtWmOhOV3Ei-12" value="unsigned int exp_date;&lt;br&gt;//소분류의 대략적 유통기한" style="text;strokeColor=default;fillColor=none;align=left;verticalAlign=middle;spacingLeft=4;spacingRight=4;overflow=hidden;points=[[0,0.5],[1,0.5]];portConstraint=eastwest;rotatable=0;whiteSpace=wrap;html=1;" vertex="1" parent="1">
          <mxGeometry x="-172.5" y="-800" width="160" height="40" as="geometry" />
        </mxCell>
        <mxCell id="TQTW1y5eRDtWmOhOV3Ei-16" value="식품 데이터 저장방식" style="rounded=1;whiteSpace=wrap;html=1;" vertex="1" parent="1">
          <mxGeometry x="-572.5" y="-860" width="120" height="60" as="geometry" />
        </mxCell>
        <mxCell id="TQTW1y5eRDtWmOhOV3Ei-17" value="prod(PROD)" style="swimlane;fontStyle=0;childLayout=stackLayout;horizontal=1;startSize=30;horizontalStack=0;resizeParent=1;resizeParentMax=0;resizeLast=0;collapsible=1;marginBottom=0;whiteSpace=wrap;html=1;" vertex="1" parent="1">
          <mxGeometry x="37.5" y="-860" width="160" height="60" as="geometry" />
        </mxCell>
        <mxCell id="TQTW1y5eRDtWmOhOV3Ei-18" value="상품명" style="text;strokeColor=none;fillColor=none;align=left;verticalAlign=middle;spacingLeft=4;spacingRight=4;overflow=hidden;points=[[0,0.5],[1,0.5]];portConstraint=eastwest;rotatable=0;whiteSpace=wrap;html=1;" vertex="1" parent="TQTW1y5eRDtWmOhOV3Ei-17">
          <mxGeometry y="30" width="160" height="30" as="geometry" />
        </mxCell>
        <mxCell id="TQTW1y5eRDtWmOhOV3Ei-19" value="대분류 카테고리명" style="text;strokeColor=default;fillColor=none;align=left;verticalAlign=middle;spacingLeft=4;spacingRight=4;overflow=hidden;points=[[0,0.5],[1,0.5]];portConstraint=eastwest;rotatable=0;whiteSpace=wrap;html=1;" vertex="1" parent="1">
          <mxGeometry x="37.5" y="-800" width="160" height="30" as="geometry" />
        </mxCell>
        <mxCell id="TQTW1y5eRDtWmOhOV3Ei-20" value="" style="endArrow=classic;html=1;rounded=0;labelBackgroundColor=none;fontColor=default;" edge="1" parent="1">
          <mxGeometry width="50" height="50" relative="1" as="geometry">
            <mxPoint x="-12.5" y="-840" as="sourcePoint" />
            <mxPoint x="37.5" y="-840" as="targetPoint" />
          </mxGeometry>
        </mxCell>
        <mxCell id="TQTW1y5eRDtWmOhOV3Ei-25" value="소분류 카테고리명" style="text;strokeColor=default;fillColor=none;align=left;verticalAlign=middle;spacingLeft=4;spacingRight=4;overflow=hidden;points=[[0,0.5],[1,0.5]];portConstraint=eastwest;rotatable=0;whiteSpace=wrap;html=1;" vertex="1" parent="1">
          <mxGeometry x="37.5" y="-770" width="160" height="30" as="geometry" />
        </mxCell>
        <mxCell id="TQTW1y5eRDtWmOhOV3Ei-26" value="time_t stored_time; &lt;br&gt;// 저장시간 및 날짜" style="text;strokeColor=default;fillColor=none;align=left;verticalAlign=middle;spacingLeft=4;spacingRight=4;overflow=hidden;points=[[0,0.5],[1,0.5]];portConstraint=eastwest;rotatable=0;whiteSpace=wrap;html=1;" vertex="1" parent="1">
          <mxGeometry x="37.5" y="-740" width="160" height="40" as="geometry" />
        </mxCell>
        <mxCell id="TQTW1y5eRDtWmOhOV3Ei-27" value="time_t exp_time; &lt;br&gt;// 유통기한" style="text;strokeColor=default;fillColor=none;align=left;verticalAlign=middle;spacingLeft=4;spacingRight=4;overflow=hidden;points=[[0,0.5],[1,0.5]];portConstraint=eastwest;rotatable=0;whiteSpace=wrap;html=1;" vertex="1" parent="1">
          <mxGeometry x="37.5" y="-700" width="160" height="40" as="geometry" />
        </mxCell>
        <mxCell id="TQTW1y5eRDtWmOhOV3Ei-28" value="태그번호" style="text;strokeColor=default;fillColor=none;align=left;verticalAlign=middle;spacingLeft=4;spacingRight=4;overflow=hidden;points=[[0,0.5],[1,0.5]];portConstraint=eastwest;rotatable=0;whiteSpace=wrap;html=1;" vertex="1" parent="1">
          <mxGeometry x="37.5" y="-660" width="160" height="30" as="geometry" />
        </mxCell>
        <mxCell id="TQTW1y5eRDtWmOhOV3Ei-29" value="대분류 카테고리" style="text;strokeColor=none;align=center;fillColor=none;html=1;verticalAlign=middle;whiteSpace=wrap;rounded=0;" vertex="1" parent="1">
          <mxGeometry x="-367.5" y="-890" width="110" height="30" as="geometry" />
        </mxCell>
        <mxCell id="TQTW1y5eRDtWmOhOV3Ei-30" value="소분류 카테고리" style="text;strokeColor=none;align=center;fillColor=none;html=1;verticalAlign=middle;whiteSpace=wrap;rounded=0;" vertex="1" parent="1">
          <mxGeometry x="-147.5" y="-890" width="110" height="30" as="geometry" />
        </mxCell>
        <mxCell id="TQTW1y5eRDtWmOhOV3Ei-31" value="상품 개체 #1" style="text;strokeColor=none;align=center;fillColor=none;html=1;verticalAlign=middle;whiteSpace=wrap;rounded=0;" vertex="1" parent="1">
          <mxGeometry x="62.5" y="-890" width="110" height="30" as="geometry" />
        </mxCell>
        <mxCell id="TQTW1y5eRDtWmOhOV3Ei-32" value="" style="endArrow=classic;html=1;rounded=0;" edge="1" parent="1">
          <mxGeometry width="50" height="50" relative="1" as="geometry">
            <mxPoint x="-335" y="60" as="sourcePoint" />
            <mxPoint x="-255" y="60" as="targetPoint" />
          </mxGeometry>
        </mxCell>
        <mxCell id="TQTW1y5eRDtWmOhOV3Ei-33" value="간단입력[0]" style="text;html=1;align=center;verticalAlign=middle;resizable=0;points=[];autosize=1;strokeColor=none;fillColor=none;" vertex="1" parent="1">
          <mxGeometry x="-335" y="30" width="80" height="30" as="geometry" />
        </mxCell>
        <mxCell id="TQTW1y5eRDtWmOhOV3Ei-35" value="대분류 카테고리 지정" style="rounded=0;whiteSpace=wrap;html=1;" vertex="1" parent="1">
          <mxGeometry x="-255" y="40" width="120" height="40" as="geometry" />
        </mxCell>
        <mxCell id="TQTW1y5eRDtWmOhOV3Ei-36" value="" style="endArrow=classic;html=1;rounded=0;" edge="1" parent="1">
          <mxGeometry width="50" height="50" relative="1" as="geometry">
            <mxPoint x="-135" y="60" as="sourcePoint" />
            <mxPoint x="-95" y="60" as="targetPoint" />
            <Array as="points">
              <mxPoint x="-135" y="60" />
            </Array>
          </mxGeometry>
        </mxCell>
        <mxCell id="TQTW1y5eRDtWmOhOV3Ei-37" value="소분류 카테고리 지정" style="rounded=0;whiteSpace=wrap;html=1;" vertex="1" parent="1">
          <mxGeometry x="-95" y="40" width="120" height="40" as="geometry" />
        </mxCell>
        <mxCell id="TQTW1y5eRDtWmOhOV3Ei-40" value="" style="endArrow=classic;html=1;rounded=0;" edge="1" parent="1">
          <mxGeometry width="50" height="50" relative="1" as="geometry">
            <mxPoint x="25" y="60" as="sourcePoint" />
            <mxPoint x="65" y="60" as="targetPoint" />
            <Array as="points">
              <mxPoint x="25" y="60" />
            </Array>
          </mxGeometry>
        </mxCell>
        <mxCell id="TQTW1y5eRDtWmOhOV3Ei-41" value="소분류 카테고리에 따른 유통기한 및 상품명 저장" style="rounded=0;whiteSpace=wrap;html=1;" vertex="1" parent="1">
          <mxGeometry x="65" y="40" width="140" height="40" as="geometry" />
        </mxCell>
        <mxCell id="TQTW1y5eRDtWmOhOV3Ei-42" value="" style="endArrow=classic;html=1;rounded=0;" edge="1" parent="1">
          <mxGeometry width="50" height="50" relative="1" as="geometry">
            <mxPoint x="-335" y="160" as="sourcePoint" />
            <mxPoint x="-255" y="160" as="targetPoint" />
          </mxGeometry>
        </mxCell>
        <mxCell id="TQTW1y5eRDtWmOhOV3Ei-43" value="상세입력[1]" style="text;html=1;align=center;verticalAlign=middle;resizable=0;points=[];autosize=1;strokeColor=none;fillColor=none;" vertex="1" parent="1">
          <mxGeometry x="-335" y="130" width="80" height="30" as="geometry" />
        </mxCell>
        <mxCell id="TQTW1y5eRDtWmOhOV3Ei-44" value="대분류 카테고리 &lt;br&gt;직접 입력" style="rounded=0;whiteSpace=wrap;html=1;" vertex="1" parent="1">
          <mxGeometry x="-255" y="140" width="120" height="40" as="geometry" />
        </mxCell>
        <mxCell id="TQTW1y5eRDtWmOhOV3Ei-45" value="" style="endArrow=classic;html=1;rounded=0;" edge="1" parent="1">
          <mxGeometry width="50" height="50" relative="1" as="geometry">
            <mxPoint x="-135" y="160" as="sourcePoint" />
            <mxPoint x="-95" y="160" as="targetPoint" />
            <Array as="points">
              <mxPoint x="-135" y="160" />
            </Array>
          </mxGeometry>
        </mxCell>
        <mxCell id="TQTW1y5eRDtWmOhOV3Ei-46" value="소분류 카테고리 &lt;br&gt;직접 입력" style="rounded=0;whiteSpace=wrap;html=1;" vertex="1" parent="1">
          <mxGeometry x="-95" y="140" width="120" height="40" as="geometry" />
        </mxCell>
        <mxCell id="TQTW1y5eRDtWmOhOV3Ei-47" value="" style="endArrow=classic;html=1;rounded=0;" edge="1" parent="1">
          <mxGeometry width="50" height="50" relative="1" as="geometry">
            <mxPoint x="25" y="160" as="sourcePoint" />
            <mxPoint x="65" y="160" as="targetPoint" />
            <Array as="points">
              <mxPoint x="25" y="160" />
            </Array>
          </mxGeometry>
        </mxCell>
        <mxCell id="TQTW1y5eRDtWmOhOV3Ei-48" value="상품명 직접 입력" style="rounded=0;whiteSpace=wrap;html=1;" vertex="1" parent="1">
          <mxGeometry x="65" y="140" width="140" height="40" as="geometry" />
        </mxCell>
        <mxCell id="TQTW1y5eRDtWmOhOV3Ei-49" value="" style="endArrow=classic;html=1;rounded=0;" edge="1" parent="1">
          <mxGeometry width="50" height="50" relative="1" as="geometry">
            <mxPoint x="205" y="160" as="sourcePoint" />
            <mxPoint x="245" y="160" as="targetPoint" />
            <Array as="points">
              <mxPoint x="205" y="160" />
            </Array>
          </mxGeometry>
        </mxCell>
        <mxCell id="TQTW1y5eRDtWmOhOV3Ei-50" value="유통기한 직접 입력" style="rounded=0;whiteSpace=wrap;html=1;" vertex="1" parent="1">
          <mxGeometry x="245" y="140" width="140" height="40" as="geometry" />
        </mxCell>
        <mxCell id="TQTW1y5eRDtWmOhOV3Ei-51" value="void sys_store_0(PROD* arr_prod, int count, CATE array_category[])" style="text;html=1;align=center;verticalAlign=middle;resizable=0;points=[];autosize=1;strokeColor=none;fillColor=none;" vertex="1" parent="1">
          <mxGeometry x="-255" y="10" width="390" height="30" as="geometry" />
        </mxCell>
        <mxCell id="TQTW1y5eRDtWmOhOV3Ei-52" value="void sys_store_1(PROD* arr_prod, int count, CATE array_category[])" style="text;html=1;align=center;verticalAlign=middle;resizable=0;points=[];autosize=1;strokeColor=none;fillColor=none;" vertex="1" parent="1">
          <mxGeometry x="-255" y="110" width="390" height="30" as="geometry" />
        </mxCell>
        <mxCell id="TQTW1y5eRDtWmOhOV3Ei-53" value="" style="endArrow=classic;html=1;rounded=0;" edge="1" parent="1">
          <mxGeometry width="50" height="50" relative="1" as="geometry">
            <mxPoint x="-430.34" y="190" as="sourcePoint" />
            <mxPoint x="-430.34" y="270" as="targetPoint" />
          </mxGeometry>
        </mxCell>
        <mxCell id="TQTW1y5eRDtWmOhOV3Ei-55" value="상품목록확인[2]&lt;br&gt;void sys_print_category_all(PROD arr_prod[], int count, CATE array_category[])" style="text;html=1;align=left;verticalAlign=middle;resizable=0;points=[];autosize=1;strokeColor=none;fillColor=none;" vertex="1" parent="1">
          <mxGeometry x="-425" y="210" width="450" height="40" as="geometry" />
        </mxCell>
        <mxCell id="TQTW1y5eRDtWmOhOV3Ei-56" value="for(대분류 카테고리) 내 소분류 카테고리 검색" style="rounded=0;whiteSpace=wrap;html=1;" vertex="1" parent="1">
          <mxGeometry x="-560" y="270" width="260" height="40" as="geometry" />
        </mxCell>
        <mxCell id="TQTW1y5eRDtWmOhOV3Ei-57" value="" style="endArrow=classic;html=1;rounded=0;" edge="1" parent="1">
          <mxGeometry width="50" height="50" relative="1" as="geometry">
            <mxPoint x="-430.34" y="310" as="sourcePoint" />
            <mxPoint x="-430.34" y="350" as="targetPoint" />
          </mxGeometry>
        </mxCell>
        <mxCell id="TQTW1y5eRDtWmOhOV3Ei-58" value="대분류 카테고리 반복문 내에서&lt;br&gt;for(소분류 카테고리) 내 각 상품정보 PROD구조체 검색" style="rounded=0;whiteSpace=wrap;html=1;" vertex="1" parent="1">
          <mxGeometry x="-590" y="350" width="320" height="50" as="geometry" />
        </mxCell>
        <mxCell id="TQTW1y5eRDtWmOhOV3Ei-59" value="" style="endArrow=classic;html=1;rounded=0;" edge="1" parent="1">
          <mxGeometry width="50" height="50" relative="1" as="geometry">
            <mxPoint x="-430.34" y="400" as="sourcePoint" />
            <mxPoint x="-430.34" y="440" as="targetPoint" />
          </mxGeometry>
        </mxCell>
        <mxCell id="TQTW1y5eRDtWmOhOV3Ei-60" value="중첩 반복문 종료될 때까지 각 PROD 구조체 &lt;br&gt;상품명 및 유통기한 출력&amp;nbsp;" style="rounded=0;whiteSpace=wrap;html=1;" vertex="1" parent="1">
          <mxGeometry x="-565" y="440" width="270" height="50" as="geometry" />
        </mxCell>
        <mxCell id="TQTW1y5eRDtWmOhOV3Ei-63" value="&lt;b&gt;&lt;font style=&quot;font-size: 14px;&quot;&gt;선도관리 시스템 냉장고&lt;br&gt;&lt;/font&gt;&lt;/b&gt;&lt;br&gt;간단입력[0]&lt;br&gt;상세입력[1]&lt;br&gt;상품목록확인[2]&lt;br&gt;상품삭제[3]&lt;br&gt;유통기한검사[4]" style="whiteSpace=wrap;html=1;aspect=fixed;labelBackgroundColor=none;" vertex="1" parent="1">
          <mxGeometry x="-560" y="620" width="190" height="190" as="geometry" />
        </mxCell>
        <mxCell id="TQTW1y5eRDtWmOhOV3Ei-65" value="상품삭제[3]" style="text;html=1;align=center;verticalAlign=middle;resizable=0;points=[];autosize=1;strokeColor=none;fillColor=none;" vertex="1" parent="1">
          <mxGeometry x="-370" y="650" width="80" height="30" as="geometry" />
        </mxCell>
        <mxCell id="TQTW1y5eRDtWmOhOV3Ei-66" value="저장된 식품 배열 내 해당 식품 인덱스 검사" style="rounded=0;whiteSpace=wrap;html=1;" vertex="1" parent="1">
          <mxGeometry x="-280" y="660" width="175" height="40" as="geometry" />
        </mxCell>
        <mxCell id="TQTW1y5eRDtWmOhOV3Ei-67" value="" style="endArrow=classic;html=1;rounded=0;" edge="1" parent="1">
          <mxGeometry width="50" height="50" relative="1" as="geometry">
            <mxPoint x="-105" y="680" as="sourcePoint" />
            <mxPoint x="-65" y="680" as="targetPoint" />
            <Array as="points">
              <mxPoint x="-105" y="680" />
            </Array>
          </mxGeometry>
        </mxCell>
        <mxCell id="TQTW1y5eRDtWmOhOV3Ei-68" value="삭제할 제품 구조체 PROD 메모리 free()" style="rounded=0;whiteSpace=wrap;html=1;" vertex="1" parent="1">
          <mxGeometry x="-65" y="660" width="135" height="40" as="geometry" />
        </mxCell>
        <mxCell id="TQTW1y5eRDtWmOhOV3Ei-69" value="" style="endArrow=classic;html=1;rounded=0;" edge="1" parent="1">
          <mxGeometry width="50" height="50" relative="1" as="geometry">
            <mxPoint x="70" y="680" as="sourcePoint" />
            <mxPoint x="110" y="680" as="targetPoint" />
            <Array as="points">
              <mxPoint x="70" y="680" />
            </Array>
          </mxGeometry>
        </mxCell>
        <mxCell id="TQTW1y5eRDtWmOhOV3Ei-70" value="삭제된 제품 인덱스로부터 제품 배열 한칸씩 이동" style="rounded=0;whiteSpace=wrap;html=1;" vertex="1" parent="1">
          <mxGeometry x="110" y="660" width="155" height="40" as="geometry" />
        </mxCell>
        <mxCell id="TQTW1y5eRDtWmOhOV3Ei-71" value="" style="endArrow=classic;html=1;rounded=0;exitX=1.005;exitY=0.844;exitDx=0;exitDy=0;exitPerimeter=0;" edge="1" parent="1" source="TQTW1y5eRDtWmOhOV3Ei-63">
          <mxGeometry width="50" height="50" relative="1" as="geometry">
            <mxPoint x="-365" y="780" as="sourcePoint" />
            <mxPoint x="-280" y="780" as="targetPoint" />
          </mxGeometry>
        </mxCell>
        <mxCell id="TQTW1y5eRDtWmOhOV3Ei-72" value="유통기한검사[4]" style="text;html=1;align=center;verticalAlign=middle;resizable=0;points=[];autosize=1;strokeColor=none;fillColor=none;" vertex="1" parent="1">
          <mxGeometry x="-380" y="750" width="110" height="30" as="geometry" />
        </mxCell>
        <mxCell id="TQTW1y5eRDtWmOhOV3Ei-73" value="현재시간 ctime() 출력" style="rounded=0;whiteSpace=wrap;html=1;" vertex="1" parent="1">
          <mxGeometry x="-280" y="760" width="120" height="40" as="geometry" />
        </mxCell>
        <mxCell id="TQTW1y5eRDtWmOhOV3Ei-74" value="" style="endArrow=classic;html=1;rounded=0;" edge="1" parent="1">
          <mxGeometry width="50" height="50" relative="1" as="geometry">
            <mxPoint x="-160" y="780" as="sourcePoint" />
            <mxPoint x="-120" y="780" as="targetPoint" />
            <Array as="points">
              <mxPoint x="-160" y="780" />
            </Array>
          </mxGeometry>
        </mxCell>
        <mxCell id="TQTW1y5eRDtWmOhOV3Ei-75" value="for(저장된 각 식품검색)" style="rounded=0;whiteSpace=wrap;html=1;" vertex="1" parent="1">
          <mxGeometry x="-120" y="760" width="145" height="40" as="geometry" />
        </mxCell>
        <mxCell id="TQTW1y5eRDtWmOhOV3Ei-76" value="" style="endArrow=classic;html=1;rounded=0;" edge="1" parent="1">
          <mxGeometry width="50" height="50" relative="1" as="geometry">
            <mxPoint x="25" y="779.8" as="sourcePoint" />
            <mxPoint x="65" y="779.8" as="targetPoint" />
            <Array as="points">
              <mxPoint x="25" y="779.8" />
            </Array>
          </mxGeometry>
        </mxCell>
        <mxCell id="TQTW1y5eRDtWmOhOV3Ei-77" value="if(제품유통기한&amp;lt;현재시간)" style="rounded=0;whiteSpace=wrap;html=1;" vertex="1" parent="1">
          <mxGeometry x="65" y="760" width="155" height="40" as="geometry" />
        </mxCell>
        <mxCell id="TQTW1y5eRDtWmOhOV3Ei-78" value="" style="endArrow=classic;html=1;rounded=0;" edge="1" parent="1">
          <mxGeometry width="50" height="50" relative="1" as="geometry">
            <mxPoint x="220" y="779.8" as="sourcePoint" />
            <mxPoint x="260" y="779.8" as="targetPoint" />
            <Array as="points">
              <mxPoint x="220" y="779.8" />
            </Array>
          </mxGeometry>
        </mxCell>
        <mxCell id="TQTW1y5eRDtWmOhOV3Ei-79" value="유통기한 지난 상품 출력" style="rounded=0;whiteSpace=wrap;html=1;" vertex="1" parent="1">
          <mxGeometry x="260" y="760" width="140" height="40" as="geometry" />
        </mxCell>
        <mxCell id="TQTW1y5eRDtWmOhOV3Ei-80" value="void sys_del(PROD* arr_prod, int count, int index)" style="text;html=1;align=center;verticalAlign=middle;resizable=0;points=[];autosize=1;strokeColor=none;fillColor=none;" vertex="1" parent="1">
          <mxGeometry x="-280" y="630" width="290" height="30" as="geometry" />
        </mxCell>
        <mxCell id="TQTW1y5eRDtWmOhOV3Ei-81" value="void sys_checkexp(time_t now_time, PROD* arr_prod, int count)" style="text;html=1;align=center;verticalAlign=middle;resizable=0;points=[];autosize=1;strokeColor=none;fillColor=none;" vertex="1" parent="1">
          <mxGeometry x="-280" y="730" width="370" height="30" as="geometry" />
        </mxCell>
        <mxCell id="TQTW1y5eRDtWmOhOV3Ei-82" value="" style="endArrow=classic;html=1;rounded=0;exitX=1.005;exitY=0.844;exitDx=0;exitDy=0;exitPerimeter=0;" edge="1" parent="1">
          <mxGeometry width="50" height="50" relative="1" as="geometry">
            <mxPoint x="-369" y="679.8" as="sourcePoint" />
            <mxPoint x="-280" y="679.8" as="targetPoint" />
          </mxGeometry>
        </mxCell>
        <mxCell id="TQTW1y5eRDtWmOhOV3Ei-83" value="prod(PROD)" style="swimlane;fontStyle=0;childLayout=stackLayout;horizontal=1;startSize=30;horizontalStack=0;resizeParent=1;resizeParentMax=0;resizeLast=0;collapsible=1;marginBottom=0;whiteSpace=wrap;html=1;" vertex="1" parent="1">
          <mxGeometry x="37.5" y="-470" width="160" height="60" as="geometry" />
        </mxCell>
        <mxCell id="TQTW1y5eRDtWmOhOV3Ei-84" value="상품명" style="text;strokeColor=none;fillColor=none;align=left;verticalAlign=middle;spacingLeft=4;spacingRight=4;overflow=hidden;points=[[0,0.5],[1,0.5]];portConstraint=eastwest;rotatable=0;whiteSpace=wrap;html=1;" vertex="1" parent="TQTW1y5eRDtWmOhOV3Ei-83">
          <mxGeometry y="30" width="160" height="30" as="geometry" />
        </mxCell>
        <mxCell id="TQTW1y5eRDtWmOhOV3Ei-85" value="대분류 카테고리명" style="text;strokeColor=default;fillColor=none;align=left;verticalAlign=middle;spacingLeft=4;spacingRight=4;overflow=hidden;points=[[0,0.5],[1,0.5]];portConstraint=eastwest;rotatable=0;whiteSpace=wrap;html=1;" vertex="1" parent="1">
          <mxGeometry x="37.5" y="-410" width="160" height="30" as="geometry" />
        </mxCell>
        <mxCell id="TQTW1y5eRDtWmOhOV3Ei-86" value="소분류 카테고리명" style="text;strokeColor=default;fillColor=none;align=left;verticalAlign=middle;spacingLeft=4;spacingRight=4;overflow=hidden;points=[[0,0.5],[1,0.5]];portConstraint=eastwest;rotatable=0;whiteSpace=wrap;html=1;" vertex="1" parent="1">
          <mxGeometry x="37.5" y="-380" width="160" height="30" as="geometry" />
        </mxCell>
        <mxCell id="TQTW1y5eRDtWmOhOV3Ei-87" value="time_t stored_time; &lt;br&gt;// 저장시간 및 날짜" style="text;strokeColor=default;fillColor=none;align=left;verticalAlign=middle;spacingLeft=4;spacingRight=4;overflow=hidden;points=[[0,0.5],[1,0.5]];portConstraint=eastwest;rotatable=0;whiteSpace=wrap;html=1;" vertex="1" parent="1">
          <mxGeometry x="37.5" y="-350" width="160" height="40" as="geometry" />
        </mxCell>
        <mxCell id="TQTW1y5eRDtWmOhOV3Ei-88" value="time_t exp_time; &lt;br&gt;// 유통기한" style="text;strokeColor=default;fillColor=none;align=left;verticalAlign=middle;spacingLeft=4;spacingRight=4;overflow=hidden;points=[[0,0.5],[1,0.5]];portConstraint=eastwest;rotatable=0;whiteSpace=wrap;html=1;" vertex="1" parent="1">
          <mxGeometry x="37.5" y="-310" width="160" height="40" as="geometry" />
        </mxCell>
        <mxCell id="TQTW1y5eRDtWmOhOV3Ei-89" value="태그번호" style="text;strokeColor=default;fillColor=none;align=left;verticalAlign=middle;spacingLeft=4;spacingRight=4;overflow=hidden;points=[[0,0.5],[1,0.5]];portConstraint=eastwest;rotatable=0;whiteSpace=wrap;html=1;" vertex="1" parent="1">
          <mxGeometry x="37.5" y="-270" width="160" height="30" as="geometry" />
        </mxCell>
        <mxCell id="TQTW1y5eRDtWmOhOV3Ei-90" value="상품 개체 #n" style="text;strokeColor=none;align=center;fillColor=none;html=1;verticalAlign=middle;whiteSpace=wrap;rounded=0;" vertex="1" parent="1">
          <mxGeometry x="62.5" y="-500" width="110" height="30" as="geometry" />
        </mxCell>
        <mxCell id="TQTW1y5eRDtWmOhOV3Ei-93" value="" style="shape=waypoint;sketch=0;size=6;pointerEvents=1;points=[];fillColor=none;resizable=0;rotatable=0;perimeter=centerPerimeter;snapToPoint=1;" vertex="1" parent="1">
          <mxGeometry x="107.5" y="-590" width="20" height="20" as="geometry" />
        </mxCell>
        <mxCell id="TQTW1y5eRDtWmOhOV3Ei-94" value="" style="shape=waypoint;sketch=0;size=6;pointerEvents=1;points=[];fillColor=none;resizable=0;rotatable=0;perimeter=centerPerimeter;snapToPoint=1;" vertex="1" parent="1">
          <mxGeometry x="107.5" y="-560" width="20" height="20" as="geometry" />
        </mxCell>
        <mxCell id="TQTW1y5eRDtWmOhOV3Ei-95" value="" style="shape=waypoint;sketch=0;size=6;pointerEvents=1;points=[];fillColor=none;resizable=0;rotatable=0;perimeter=centerPerimeter;snapToPoint=1;" vertex="1" parent="1">
          <mxGeometry x="107.5" y="-530" width="20" height="20" as="geometry" />
        </mxCell>
        <mxCell id="TQTW1y5eRDtWmOhOV3Ei-96" value="" style="shape=curlyBracket;whiteSpace=wrap;html=1;rounded=1;flipH=1;labelPosition=right;verticalLabelPosition=middle;align=left;verticalAlign=middle;strokeWidth=2;" vertex="1" parent="1">
          <mxGeometry x="230" y="-880" width="60" height="660" as="geometry" />
        </mxCell>
        <mxCell id="TQTW1y5eRDtWmOhOV3Ei-97" value="PROD* arr_prod = (PROD*)malloc(MAX_PRODUCT * sizeof(PROD));&lt;br&gt;PROD 구조체 배열로 각 상품 개체 저장" style="text;html=1;align=center;verticalAlign=middle;resizable=0;points=[];autosize=1;strokeColor=none;fillColor=none;" vertex="1" parent="1">
          <mxGeometry x="280" y="-570" width="400" height="40" as="geometry" />
        </mxCell>
        <mxCell id="TQTW1y5eRDtWmOhOV3Ei-98" value="void sys_add(...)를 통해 상품 개체 생성" style="text;html=1;align=center;verticalAlign=middle;resizable=0;points=[];autosize=1;strokeColor=none;fillColor=none;" vertex="1" parent="1">
          <mxGeometry x="2.5" y="-630" width="230" height="30" as="geometry" />
        </mxCell>
        <mxCell id="TQTW1y5eRDtWmOhOV3Ei-99" value="void sys_add(...)를 통해 상품 개체 생성" style="text;html=1;align=center;verticalAlign=middle;resizable=0;points=[];autosize=1;strokeColor=none;fillColor=none;" vertex="1" parent="1">
          <mxGeometry x="2.5" y="-240" width="230" height="30" as="geometry" />
        </mxCell>
      </root>
    </mxGraphModel>
  </diagram>
</mxfile>
